<svg width="70" height="31" viewBox="0 0 70 31" fill="none" xmlns="http://www.w3.org/2000/svg">
<path d="M34.2388 30.1697C42.6076 30.1697 49.3919 23.4533 49.3919 15.1682C49.3919 6.88308 42.6076 0.166668 34.2388 0.166668C25.87 0.166668 19.0858 6.88308 19.0858 15.1682C19.0858 23.4533 25.87 30.1697 34.2388 30.1697Z" fill="url(#paint0_linear_9_2)"/>
<path fill-rule="evenodd" clip-rule="evenodd" d="M47.1464 7.15936C57.4217 5.58935 64.7959 5.72956 65.3167 7.83387C66.0466 10.7831 53.0403 16.4724 36.2663 20.5411C19.4923 24.6099 5.30265 25.5175 4.57268 22.5683C4.07592 20.5608 9.94401 17.2841 19.0311 14.113C12.3712 16.6007 8.2073 19.0796 8.59607 20.6504C9.22092 23.1752 21.368 22.3983 35.7272 18.9152C50.0865 15.4321 61.2206 10.5619 60.5957 8.03718C60.1863 6.38301 54.8301 6.1463 47.1464 7.15936Z" fill="#BB6BD9"/>
<path fill-rule="evenodd" clip-rule="evenodd" d="M49.104 7.02971C60.9473 5.22008 69.4468 5.38167 70.0471 7.80714C70.8883 11.2065 55.8973 17.7638 36.5636 22.4535C17.2301 27.1432 0.875092 28.1892 0.0337337 24.79C-0.538826 22.4761 6.22468 18.6994 16.6985 15.0444C9.02227 17.9118 4.22297 20.7689 4.67107 22.5794C5.39129 25.4894 19.3919 24.594 35.9423 20.5795C52.4927 16.5648 65.3258 10.9515 64.6056 8.04147C64.1338 6.13489 57.9602 5.86204 49.104 7.02971Z" fill="#A74DC7"/>
<defs>
<linearGradient id="paint0_linear_9_2" x1="41.0016" y1="1.74357" x2="27.6925" y2="28.6996" gradientUnits="userSpaceOnUse">
<stop stop-color="white"/>
<stop offset="1" stop-color="#E9CBF7"/>
</linearGradient>
</defs>
</svg>
